:SAMPLES-PER-SECOND 24
:FULLY-SPECIFIED
:DEGREES
54
root  0.621427 40.0206 -1.47639 149.622 -32.8539 -148.089
RightUpLeg  -61.6014 -15.0407 -6.96591
RightLeg  73.8799 -2.19477 -9.60054
RightFoot  10.0253 -1.5971 8.81694
RightToes  -2.09809e-008 3.77894e-005 6.81332e-007
Spine  10.8437 -1.05363 1.61519
Spine1  8.26585 -4.15863 14.3842
HEad  -18.2951 -17.5648 15.4366
LeftShoulder1  7.37203 -13.2958 -37.783
LeftArm  16.158 22.7636 -29.0368
LeftForeArm  165.274 -70.7085 -151.732
LeftHand  -0.1202 -3.15772 1.86935
RightShoulder  3.61855 6.10326 31.7793
RightArm  11.784 -22.3237 31.7429
RightForeArm  155.308 71.1721 149.572
RightHand  -0.681163 8.71107 -5.97453
LeftUpLeg  -1.67109 -18.5204 23.7382
LeftLeg  25.6145 3.65125 2.23675
LeftFoot  -12.4391 0.0768293 0.227226
LeftToes  1.24773e-006 1.46318e-008 1.32523e-009
55
root  0.645269 40.0012 -2.02996 154.738 -33.3216 -152.74
RightUpLeg  -58.7471 -16.048 -3.15728
RightLeg  77.9955 -1.05655 -7.49908
RightFoot  10.4416 -1.84885 9.96181
RightToes  -2.09809e-008 3.77894e-005 6.81332e-007
Spine  8.04151 -0.557881 -0.0400024
Spine1  8.11205 -3.66551 13.8116
HEad  -19.4925 -17.1743 15.2636
LeftShoulder1  7.31379 -13.2397 -37.5895
LeftArm  14.6566 28.0184 -29.2646
LeftForeArm  165.043 -70.0672 -152.636
LeftHand  -0.153286 -2.86324 2.38126
RightShoulder  3.54089 6.00127 31.3638
RightArm  13.5059 -22.5906 31.4706
RightForeArm  156.928 70.8043 150.399
RightHand  -0.599099 8.81068 -5.26976
LeftUpLeg  -2.20618 -16.72 20.6411
LeftLeg  24.2296 4.58538 2.58328
LeftFoot  -12.5916 0.073873 -0.149814
LeftToes  1.24773e-006 1.46318e-008 1.32523e-009
56
root  0.699702 39.9024 -2.58242 160.652 -32.479 -158.536
RightUpLeg  -54.355 -16.5202 -1.09611
RightLeg  76.7553 -1.19522 -7.36582
RightFoot  9.86102 -1.8663 10.3101
RightToes  -2.09809e-008 3.77894e-005 6.81332e-007
Spine  4.7812 -0.0997072 -1.80585
Spine1  8.60831 -3.01059 12.5183
HEad  -20.6579 -16.3895 14.8578
LeftShoulder1  7.30977 -13.2435 -37.5569
LeftArm  13.8261 31.5038 -28.7826
LeftForeArm  164.675 -69.6056 -153.226
LeftHand  -0.189192 -2.56054 2.9741
RightShoulder  3.52699 5.9828 31.289
RightArm  14.9105 -22.6106 31.7423
RightForeArm  158.582 70.8196 150.611
RightHand  -0.584567 9.12643 -5.05218
LeftUpLeg  -2.79521 -13.6765 17.0093
LeftLeg  23.3843 5.18451 2.78199
LeftFoot  -13.3406 0.06613 -0.77299
LeftToes  1.24773e-006 1.46318e-008 1.32523e-009
57
root  0.772938 39.7455 -3.13597 166.46 -29.9356 -164.659
RightUpLeg  -48.7509 -15.5264 -1.15376
RightLeg  70.9753 -2.17684 -7.99825
RightFoot  7.24057 -1.38919 8.7624
RightToes  -2.09809e-008 3.77894e-005 6.81332e-007
Spine  1.42989 0.273782 -2.9271
Spine1  9.81662 -2.21159 10.5856
HEad  -21.8586 -15.1141 14.0477
LeftShoulder1  7.33125 -13.2744 -37.6026
LeftArm  13.7162 32.777 -28.1177
LeftForeArm  164.708 -69.2737 -153.673
LeftHand  -0.231916 -2.3766 3.67124
RightShoulder  3.52021 5.96935 31.2702
RightArm  15.7377 -22.5929 32.7804
RightForeArm  159.197 70.9549 150.486
RightHand  -0.573989 9.57899 -4.83684
LeftUpLeg  -3.00377 -10.0488 13.0694
LeftLeg  22.7358 6.2833 3.21223
LeftFoot  -14.2461 0.0418886 -1.72021
LeftToes  1.24773e-006 1.46318e-008 1.32523e-009
58
root  0.857874 39.5096 -3.75883 171.502 -25.9057 -170.276
RightUpLeg  -42.6292 -13.8817 -2.24147
RightLeg  61.4399 -5.52081 -11.3721
RightFoot  3.54022 -0.820636 6.4621
RightToes  -2.09809e-008 3.77894e-005 6.81332e-007
Spine  -1.35997 0.448699 -3.68205
Spine1  10.6608 -1.58571 8.8695
HEad  -22.6104 -13.4134 12.5808
LeftShoulder1  7.48911 -13.4169 -38.1458
LeftArm  13.9467 31.6924 -27.7508
LeftForeArm  164.618 -69.2411 -153.705
LeftHand  -0.250992 -2.15979 4.05432
RightShoulder  3.52205 5.96086 31.3242
RightArm  16.3121 -22.9824 33.6264
RightForeArm  160.608 70.7315 151.035
RightHand  -0.482956 10.0041 -4.03667
LeftUpLeg  -2.98259 -6.75638 9.11674
LeftLeg  22.493 8.13917 4.01587
LeftFoot  -14.9892 0.0130508 -2.43165
LeftToes  1.24773e-006 1.46318e-008 1.32523e-009
59
root  0.942696 39.2713 -4.47483 175.394 -20.72 -174.844
RightUpLeg  -36.4529 -13.0604 -3.42725
RightLeg  48.3822 -11.6532 -14.0072
RightFoot  -0.0799544 -0.398906 4.03794
RightToes  -2.09809e-008 3.77894e-005 6.81332e-007
Spine  -3.01163 0.00880332 -3.58969
Spine1  10.2232 -1.51327 6.87645
HEad  -22.4441 -10.7086 10.1264
LeftShoulder1  7.66261 -13.5623 -38.7587
LeftArm  14.626 29.3953 -27.882
LeftForeArm  164.96 -69.1723 -153.838
LeftHand  -0.25807 -1.96018 4.2607
RightShoulder  3.62397 6.0802 31.9284
RightArm  17.015 -23.7731 33.3941
RightForeArm  162.388 70.2627 151.984
RightHand  -0.418795 10.333 -3.49298
LeftUpLeg  -2.52017 -3.71128 5.58588
LeftLeg  22.2308 10.4329 4.98298
LeftFoot  -16.3436 -0.0655038 -3.73946
LeftToes  1.24773e-006 1.46318e-008 1.32523e-009
60
root  1.08815 39.0195 -5.40936 178.481 -14.5759 -178.607
RightUpLeg  -30.8823 -13.1198 -4.69242
RightLeg  33.7821 -16.1273 -11.576
RightFoot  -4.03398 -0.165292 2.21037
RightToes  -2.09809e-008 3.77894e-005 6.81332e-007
Spine  -5.25537 -0.919155 -4.67452
Spine1  10.1803 -2.45739 7.00449
HEad  -21.7122 -6.46585 6.21795
LeftShoulder1  7.89334 -13.7613 -39.5399
LeftArm  15.1642 26.684 -28.4655
LeftForeArm  165.985 -68.8623 -154.367
LeftHand  -0.271091 -1.92808 4.48417
RightShoulder  3.61042 6.06041 31.864
RightArm  17.2022 -24.5642 33.0537
RightForeArm  162.298 70.0497 152.28
RightHand  -0.426125 10.3188 -3.54961
LeftUpLeg  -1.71245 -0.0946591 2.5151
LeftLeg  21.8454 13.1819 6.0801
LeftFoot  -17.5567 -0.192333 -5.49476
LeftToes  1.24773e-006 1.46318e-008 1.32523e-009
61
root  1.34704 38.7773 -6.55053 -179.279 -7.43912 178.652
RightUpLeg  -26.7743 -12.6483 -5.53752
RightLeg  21.9577 -17.7108 -7.90482
RightFoot  -6.33061 -0.161006 2.71891
RightToes  -2.09809e-008 3.77894e-005 6.81332e-007
Spine  -7.07279 -2.2604 -5.80293
Spine1  9.56401 -4.15314 8.86822
HEad  -20.2739 -0.208325 1.6304
LeftShoulder1  7.85715 -13.7393 -39.3947
LeftArm  14.8673 24.9852 -29.7424
LeftForeArm  167.398 -68.1175 -155.445
LeftHand  -0.263021 -2.06405 4.28696
RightShoulder  3.5025 5.91966 31.2787
RightArm  17.1087 -25.7039 32.792
RightForeArm  162.017 69.7668 152.639
RightHand  -0.426836 10.2428 -3.56931
LeftUpLeg  -0.0891237 4.61036 0.458695
LeftLeg  20.5355 15.2991 6.50142
LeftFoot  -17.8138 -0.276335 -6.81868
LeftToes  1.24773e-006 1.46318e-008 1.32523e-009
62
root  1.65724 38.6783 -7.76023 -178.17 0.582596 177.885
RightUpLeg  -24.8368 -11.9824 -4.40499
RightLeg  15.8291 -17.9003 -5.48733
RightFoot  -4.41907 -0.246507 3.55438
RightToes  -2.09809e-008 3.77894e-005 6.81332e-007
Spine  -7.23093 -3.67205 -4.21771
Spine1  8.26579 -6.21072 11.1046
HEad  -19.2792 7.77168 -3.55362
LeftShoulder1  7.83868 -13.7316 -39.312
LeftArm  13.6317 24.1761 -30.2069
LeftForeArm  168.603 -66.7386 -157.11
LeftHand  -0.279529 -2.04456 4.55508
RightShoulder  3.4104 5.81051 30.7188
RightArm  17.3297 -26.2459 31.7476
RightForeArm  162.97 69.0894 153.677
RightHand  -0.45478 10.5539 -3.71333
LeftUpLeg  2.49454 10.5973 0.814499
LeftLeg  19.2892 15.0298 5.9846
LeftFoot  -19.0421 -0.623042 -10.7745
LeftToes  1.24773e-006 1.46318e-008 1.32523e-009
63
root  2.04868 38.6508 -8.99823 -177.57 9.44193 178.595
RightUpLeg  -25.5547 -12.1975 -0.871496
RightLeg  15.6937 -12.7824 -3.75461
RightFoot  -1.45993 -0.296272 3.3103
RightToes  -2.09809e-008 3.77894e-005 6.81332e-007
Spine  -6.24466 -4.76329 -0.192072
Spine1  7.32557 -7.98541 12.5138
HEad  -19.617 16.3049 -9.13176
LeftShoulder1  7.85853 -13.7162 -39.4609
LeftArm  11.3304 23.3156 -30.3293
LeftForeArm  169.828 -65.7157 -158.274
LeftHand  -0.316971 -1.96655 5.18955
RightShoulder  3.33173 5.73176 30.1707
RightArm  17.328 -24.6937 30.2816
RightForeArm  162.993 69.0232 153.767
RightHand  -0.496722 10.5444 -4.01973
LeftUpLeg  2.69413 16.8727 3.10703
LeftLeg  25.1148 13.4174 7.0995
LeftFoot  -18.2699 -1.00125 -18.2024
LeftToes  1.24773e-006 1.46318e-008 1.32523e-009
64
root  2.60734 38.5423 -10.2043 -177.661 18.269 178.522
RightUpLeg  -26.8818 -9.12176 1.11341
RightLeg  19.5376 -6.40438 -2.76847
RightFoot  -1.7411 -0.277283 3.16025
RightToes  -2.09809e-008 3.77894e-005 6.81332e-007
Spine  -3.9927 -5.31218 2.55683
Spine1  5.95456 -8.81002 13.4133
HEad  -19.3811 23.6517 -13.6994
LeftShoulder1  7.59213 -13.4094 -38.7473
LeftArm  8.77128 22.1798 -31.4802
LeftForeArm  170.818 -65.8611 -158.242
LeftHand  -0.280582 -2.09756 4.54322
RightShoulder  3.31172 5.74007 29.9169
RightArm  16.3992 -22.3616 29.1756
RightForeArm  161.157 70.0818 152.075
RightHand  -0.459122 10.1053 -3.83595
LeftUpLeg  -2.16383 20.5014 4.88143
LeftLeg  40.7668 9.88392 9.27297
LeftFoot  -8.08228 0.617328 -21.4749
LeftToes  1.24773e-006 1.46318e-008 1.32523e-009
65
root  3.12634 38.3168 -11.1928 -179.444 25.1076 176.835
RightUpLeg  -27.1464 -2.88196 -0.357449
RightLeg  24.6674 -4.69721 -2.58605
RightFoot  -4.05085 -0.189047 2.50323
RightToes  -2.09809e-008 3.77894e-005 6.81332e-007
Spine  0.318731 -5.43176 4.17127
Spine1  3.34477 -8.45846 13.5683
HEad  -17.1115 28.2399 -16.0089
LeftShoulder1  7.22245 -13.0127 -37.6368
LeftArm  7.55363 20.9913 -32.7233
LeftForeArm  171.364 -66.0361 -158.135
LeftHand  -0.214482 -2.39097 3.40579
RightShoulder  3.36225 5.8445 30.0587
RightArm  15.1628 -21.724 28.93
RightForeArm  158.845 71.0503 150.286
RightHand  -0.453841 9.94177 -3.83069
LeftUpLeg  -10.5669 20.2242 5.80838
LeftLeg  60.2478 3.09101 6.09705
LeftFoot  2.89653 2.15315 -17.3187
LeftToes  1.24773e-006 1.46318e-008 1.32523e-009
